inDegrees=yes
name=ik_XSensDOTOutput
DataType=double
version=3
OpenSimVersion=4.4-2022-07-23-0e9fedc
endheader
time	pelvis_tilt	pelvis_list	pelvis_rotation	pelvis_tx	pelvis_ty	pelvis_tz	hip_flexion_r	hip_adduction_r	hip_rotation_r	knee_angle_r	knee_angle_r_beta	ankle_angle_r	subtalar_angle_r	mtp_angle_r	hip_flexion_l	hip_adduction_l	hip_rotation_l	knee_angle_l	knee_angle_l_beta	ankle_angle_l	subtalar_angle_l	mtp_angle_l	lumbar_extension	lumbar_bending	lumbar_rotation	arm_flex_r	arm_add_r	arm_rot_r	elbow_flex_r	pro_sup_r	wrist_flex_r	wrist_dev_r	arm_flex_l	arm_add_l	arm_rot_l	elbow_flex_l	pro_sup_l	wrist_flex_l	wrist_dev_l
5.116666666666666	10.99690488330694	-0.7273406965171502	-39.51287725243171	0	0.9399999999999999	0	43.68798205908714	-10.03567365037167	0	59.41631279925016	1.037010287741764	-5.007524081608982	0	0	43.68798205908714	-10.03567365037167	0	59.41631279925016	1.037010287741764	-5.007524081608982	0	0	6.471157191984492	4.264386183327861	-39.07625998922242	-11.45428607882887	-29.75019226897784	-13.27701464376953	41.04479308278642	0.03967674827317262	0	0	0	-12.25516527366253	0	75.63740749865887	45.32851690188998	0	0
5.133333333333334	11.00018290277023	-0.7626322125118051	-39.49235715018469	0	0.9399999999999999	0	43.68834407836542	-10.0356393306326	0	59.41643941037928	1.037012497522837	-5.00751464224935	0	0	43.68834407836542	-10.0356393306326	0	59.41643941037928	1.037012497522837	-5.00751464224935	0	0	6.497357294291812	4.239106483122396	-39.04683637437552	-11.82691282730853	-29.62123102882455	-13.15469605531712	39.9118233976037	0.04523941469478165	0	0	0	-12.25555357031439	0	75.637231711563	45.32826681136398	0	0
5.15	11.01264474159558	-0.804710404850968	-39.47349018744062	0	0.9399999999999999	0	43.6888389656846	-10.03559236917074	0	59.41661224660887	1.03701551408411	-5.007501726087218	0	0	43.6888389656846	-10.03559236917074	0	59.41661224660887	1.03701551408411	-5.007501726087218	0	0	6.535029055401249	4.21344858542347	-39.01827337565964	-12.14104953938948	-29.44807194962521	-13.02051932679483	38.63844191415429	0.05333419786568293	0	0	0	-12.25608390534239	0	75.63699140733975	45.327924623632	0	0
5.166666666666667	11.02607528041161	-0.844490842875217	-39.44958453477026	0	0.9399999999999999	0	43.68934799831039	-10.03554412018637	0	59.41679005944758	1.037018617503598	-5.007488461767714	0	0	43.68934799831039	-10.03554412018637	0	59.41679005944758	1.037018617503598	-5.007488461767714	0	0	6.571920399973405	4.19030540963343	-38.9851920470851	-12.32463170240474	-29.24800131142068	-12.8135081782499	37.28456877565623	0.06536783155003327	0	0	0	-12.25662954989789	0	75.63674423444651	45.3275729435755	0	0
5.183333333333334	11.05495907827253	-0.8881860410054983	-39.43093749213976	0	0.9399999999999999	0	43.68974858436379	-10.03550623291154	0	59.4169301475	1.037021062501355	-5.007478052517971	0	0	43.68974858436379	-10.03550623291154	0	59.4169301475	1.037021062501355	-5.007478052517971	0	0	6.623002256155583	4.173485505969158	-38.95718571535265	-12.5946628836165	-29.12126291045572	-12.63599606470147	36.02324849778975	0.08113507493759041	0	0	0	-12.25705934205949	0	75.63654972021675	45.32729665453887	0	0
5.2	11.07484995783019	-0.9281686764151236	-39.39534615673877	0	0.9399999999999999	0	43.68997202720175	-10.03548522010552	0	59.41700860969109	1.037022431924928	-5.0074722866139	0	0	43.68997202720175	-10.03548522010552	0	59.41700860969109	1.037022431924928	-5.0074722866139	0	0	6.664986788177002	4.156451840551905	-38.91272030847704	-13.05091445750934	-28.97810235155811	-12.6622931483693	34.88131074509798	0.10184913377154	0	0	0	-12.25729980138147	0	75.63644122191539	45.32714325499435	0	0
5.216666666666667	11.08059735291904	-0.9554299460280591	-39.3847946336529	0	0.9399999999999999	0	43.69054325070989	-10.03543113486582	0	59.41720799426854	1.037025911842282	-5.007457428819436	0	0	43.69054325070989	-10.03543113486582	0	59.41720799426854	1.037025911842282	-5.007457428819436	0	0	6.687913228192895	4.136169370334022	-38.89467877227673	-13.39313032019642	-28.78439723462076	-12.60203880265831	33.64824727783529	0.1392670626662577	0	0	0	-12.25791195967502	0	75.63616385071721	45.32674885562193	0	0
5.233333333333333	11.10363037959938	-0.9815914075889842	-39.35345322655729	0	0.9399999999999999	0	43.69086742440126	-10.03540057546642	0	59.41732148142817	1.037027892566876	-5.007449042489424	0	0	43.69086742440126	-10.03540057546642	0	59.41732148142817	1.037027892566876	-5.007449042489424	0	0	6.723285303751339	4.131288883948444	-38.85632463018237	-13.79179451274654	-28.70525029977927	-12.57320235860322	32.49024436328126	0.2241994450781841	0	0	0	-12.25826013523817	0	75.63600644019056	45.32652581779799	0	0
5.25	11.11378675006999	-1.006288743641808	-39.33169271660736	0	0.9399999999999999	0	43.69138335423675	-10.03535184504627	0	59.41750170862394	1.037031038124844	-5.00743566716769	0	0	43.69138335423675	-10.03535184504627	0	59.41750170862394	1.037031038124844	-5.00743566716769	0	0	6.746826443303784	4.115918363813859	-38.82754830329116	-14.00432723782908	-28.50668370885596	-12.53826358072814	31.1868724444651	0.4734899391082615	0	0	0	-12.25881347157066	0	75.63575591795879	45.32617024549116	0	0
5.266666666666667	11.14804000997953	-1.034373233388069	-39.31356009093246	0	0.9399999999999999	0	43.69169480460472	-10.03532255187179	0	59.41761081109966	1.037032942322268	-5.007427634970368	0	0	43.69169480460472	-10.03532255187179	0	59.41761081109966	1.037032942322268	-5.007427634970368	0	0	6.79064087387913	4.112690421577879	-38.80179075375939	-14.24180945677765	-28.25730365021731	-12.66619252980244	29.81071266528209	0.9179958094964498	0	0	0	-12.2591482066479	0	75.63560468544979	45.32595632188766	0	0
5.283333333333333	11.18394488494913	-1.061999652025936	-39.29551253845069	0	0.9399999999999999	0	43.69213306204423	-10.03528125468481	0	59.41776402764291	1.037035616455416	-5.007416309020084	0	0	43.69213306204423	-10.03528125468481	0	59.41776402764291	1.037035616455416	-5.007416309020084	0	0	6.836130730388139	4.111698019593091	-38.77598570575945	-14.32291924236002	-27.89068189359812	-12.60731864914226	28.24854039075292	1.24096571623488	0	0	0	-12.25961860132462	0	75.63539187877267	45.32565481007515	0	0
